<svg xmlns="http://www.w3.org/2000/svg" version="1.1" xmlns:xlink="http://www.w3.org/1999/xlink" xmlns:svgjs="http://svgjs.dev/svgjs" width="700" height="800" preserveAspectRatio="none" viewBox="0 0 700 800"><g mask="url(&quot;#SvgjsMask1056&quot;)" fill="none"><path d="M85.48 38.95L150.44 76.45L150.44 151.45L85.48 188.95L20.53 151.45L20.53 76.45zM20.53 601.45L85.48 638.95L85.48 713.95L20.53 751.45L-44.42 713.95L-44.42 638.95zM280.35 151.45L345.3 188.95L345.3 263.95L280.35 301.45L215.39 263.95L215.39 188.95zM475.21 38.95L540.16 76.45L540.16 151.45L475.21 188.95L410.25 151.45L410.25 76.45zM410.25 601.45L475.21 638.95L475.21 713.95L410.25 751.45L345.3 713.95L345.3 638.95zM670.07 -73.55L735.02 -36.05L735.02 38.95L670.07 76.45L605.11 38.95L605.11 -36.05zM735.02 38.95L799.98 76.45L799.98 151.45L735.02 188.95L670.07 151.45L670.07 76.45zM670.07 376.45L735.02 413.95L735.02 488.95L670.07 526.45L605.11 488.95L605.11 413.95z" stroke="rgba(205, 88, 136, 1)" stroke-width="2"></path><path d="M77.98 38.95 a7.5 7.5 0 1 0 15 0 a7.5 7.5 0 1 0 -15 0zM142.94 76.45 a7.5 7.5 0 1 0 15 0 a7.5 7.5 0 1 0 -15 0zM142.94 151.45 a7.5 7.5 0 1 0 15 0 a7.5 7.5 0 1 0 -15 0zM77.98 188.95 a7.5 7.5 0 1 0 15 0 a7.5 7.5 0 1 0 -15 0zM13.03 151.45 a7.5 7.5 0 1 0 15 0 a7.5 7.5 0 1 0 -15 0zM13.03 76.45 a7.5 7.5 0 1 0 15 0 a7.5 7.5 0 1 0 -15 0zM13.03 601.45 a7.5 7.5 0 1 0 15 0 a7.5 7.5 0 1 0 -15 0zM77.98 638.95 a7.5 7.5 0 1 0 15 0 a7.5 7.5 0 1 0 -15 0zM77.98 713.95 a7.5 7.5 0 1 0 15 0 a7.5 7.5 0 1 0 -15 0zM13.03 751.45 a7.5 7.5 0 1 0 15 0 a7.5 7.5 0 1 0 -15 0zM-51.92 713.95 a7.5 7.5 0 1 0 15 0 a7.5 7.5 0 1 0 -15 0zM-51.92 638.95 a7.5 7.5 0 1 0 15 0 a7.5 7.5 0 1 0 -15 0zM272.85 151.45 a7.5 7.5 0 1 0 15 0 a7.5 7.5 0 1 0 -15 0zM337.8 188.95 a7.5 7.5 0 1 0 15 0 a7.5 7.5 0 1 0 -15 0zM337.8 263.95 a7.5 7.5 0 1 0 15 0 a7.5 7.5 0 1 0 -15 0zM272.85 301.45 a7.5 7.5 0 1 0 15 0 a7.5 7.5 0 1 0 -15 0zM207.89 263.95 a7.5 7.5 0 1 0 15 0 a7.5 7.5 0 1 0 -15 0zM207.89 188.95 a7.5 7.5 0 1 0 15 0 a7.5 7.5 0 1 0 -15 0zM467.71 38.95 a7.5 7.5 0 1 0 15 0 a7.5 7.5 0 1 0 -15 0zM532.66 76.45 a7.5 7.5 0 1 0 15 0 a7.5 7.5 0 1 0 -15 0zM532.66 151.45 a7.5 7.5 0 1 0 15 0 a7.5 7.5 0 1 0 -15 0zM467.71 188.95 a7.5 7.5 0 1 0 15 0 a7.5 7.5 0 1 0 -15 0zM402.75 151.45 a7.5 7.5 0 1 0 15 0 a7.5 7.5 0 1 0 -15 0zM402.75 76.45 a7.5 7.5 0 1 0 15 0 a7.5 7.5 0 1 0 -15 0zM402.75 601.45 a7.5 7.5 0 1 0 15 0 a7.5 7.5 0 1 0 -15 0zM467.71 638.95 a7.5 7.5 0 1 0 15 0 a7.5 7.5 0 1 0 -15 0zM467.71 713.95 a7.5 7.5 0 1 0 15 0 a7.5 7.5 0 1 0 -15 0zM402.75 751.45 a7.5 7.5 0 1 0 15 0 a7.5 7.5 0 1 0 -15 0zM337.8 713.95 a7.5 7.5 0 1 0 15 0 a7.5 7.5 0 1 0 -15 0zM337.8 638.95 a7.5 7.5 0 1 0 15 0 a7.5 7.5 0 1 0 -15 0zM662.57 -73.55 a7.5 7.5 0 1 0 15 0 a7.5 7.5 0 1 0 -15 0zM727.52 -36.05 a7.5 7.5 0 1 0 15 0 a7.5 7.5 0 1 0 -15 0zM727.52 38.95 a7.5 7.5 0 1 0 15 0 a7.5 7.5 0 1 0 -15 0zM662.57 76.45 a7.5 7.5 0 1 0 15 0 a7.5 7.5 0 1 0 -15 0zM597.61 38.95 a7.5 7.5 0 1 0 15 0 a7.5 7.5 0 1 0 -15 0zM597.61 -36.05 a7.5 7.5 0 1 0 15 0 a7.5 7.5 0 1 0 -15 0zM792.48 76.45 a7.5 7.5 0 1 0 15 0 a7.5 7.5 0 1 0 -15 0zM792.48 151.45 a7.5 7.5 0 1 0 15 0 a7.5 7.5 0 1 0 -15 0zM727.52 188.95 a7.5 7.5 0 1 0 15 0 a7.5 7.5 0 1 0 -15 0zM662.57 151.45 a7.5 7.5 0 1 0 15 0 a7.5 7.5 0 1 0 -15 0zM662.57 376.45 a7.5 7.5 0 1 0 15 0 a7.5 7.5 0 1 0 -15 0zM727.52 413.95 a7.5 7.5 0 1 0 15 0 a7.5 7.5 0 1 0 -15 0zM727.52 488.95 a7.5 7.5 0 1 0 15 0 a7.5 7.5 0 1 0 -15 0zM662.57 526.45 a7.5 7.5 0 1 0 15 0 a7.5 7.5 0 1 0 -15 0zM597.61 488.95 a7.5 7.5 0 1 0 15 0 a7.5 7.5 0 1 0 -15 0zM597.61 413.95 a7.5 7.5 0 1 0 15 0 a7.5 7.5 0 1 0 -15 0z" fill="rgba(205, 88, 136, 1)"></path><path d="M43.95 -3L87.25 22L87.25 72L43.95 97L0.65 72L0.65 22zM87.25 372L130.56 397L130.56 447L87.25 472L43.95 447L43.95 397zM87.25 822L130.56 847L130.56 897L87.25 922L43.95 897L43.95 847zM173.86 222L217.16 247L217.16 297L173.86 322L130.56 297L130.56 247zM130.56 747L173.86 772L173.86 822L130.56 847L87.25 822L87.25 772zM260.46 672L303.76 697L303.76 747L260.46 772L217.16 747L217.16 697zM260.46 822L303.76 847L303.76 897L260.46 922L217.16 897L217.16 847zM303.76 -3L347.07 22L347.07 72L303.76 97L260.46 72L260.46 22zM303.76 747L347.07 772L347.07 822L303.76 847L260.46 822L260.46 772zM390.37 147L433.67 172L433.67 222L390.37 247L347.07 222L347.07 172zM433.67 222L476.98 247L476.98 297L433.67 322L390.37 297L390.37 247zM476.98 -3L520.28 22L520.28 72L476.98 97L433.67 72L433.67 22zM476.98 597L520.28 622L520.28 672L476.98 697L433.67 672L433.67 622zM606.88 372L650.19 397L650.19 447L606.88 472L563.58 447L563.58 397zM606.88 522L650.19 547L650.19 597L606.88 622L563.58 597L563.58 547zM650.19 -3L693.49 22L693.49 72L650.19 97L606.88 72L606.88 22zM650.19 297L693.49 322L693.49 372L650.19 397L606.88 372L606.88 322zM650.19 597L693.49 622L693.49 672L650.19 697L606.88 672L606.88 622zM693.49 822L736.79 847L736.79 897L693.49 922L650.19 897L650.19 847zM780.09 672L823.4 697L823.4 747L780.09 772L736.79 747L736.79 697z" stroke="rgba(242, 190, 209, 1)" stroke-width="2"></path></g><defs><mask id="SvgjsMask1056"><rect width="700" height="800" fill="#ffffff"></rect></mask></defs></svg>